<svg width="489" height="92" viewBox="0 0 489 92" fill="none" xmlns="http://www.w3.org/2000/svg">
<path d="M78.704 64.288C76.016 64.288 73.6 63.792 71.456 62.8C69.312 61.808 67.6 60.352 66.32 58.432C65.072 56.48 64.448 54.128 64.448 51.376C64.448 49.456 64.784 47.376 65.456 45.136C66.928 40.336 69.152 36.88 72.128 34.768C75.104 32.624 78.288 31.552 81.68 31.552C83.504 31.552 85.12 31.824 86.528 32.368C87.936 32.912 89.232 33.696 90.416 34.72L91.712 33.712C92.576 33.04 93.296 32.576 93.872 32.32C94.48 32.064 95.152 31.936 95.888 31.936C96.688 31.936 97.328 32.112 97.808 32.464C98.288 32.816 98.528 33.328 98.528 34C98.528 34.352 98.464 34.704 98.336 35.056L95.648 42.544C95.36 43.408 95.008 44.016 94.592 44.368C94.208 44.72 93.616 44.896 92.816 44.896C91.984 44.896 91.296 44.608 90.752 44.032C90.24 43.424 89.648 42.4 88.976 40.96C88.208 39.456 87.584 38.464 87.104 37.984C86.624 37.504 85.92 37.264 84.992 37.264C83.68 37.264 82.416 38.08 81.2 39.712C79.984 41.312 78.88 43.728 77.888 46.96C77.056 49.68 76.64 51.952 76.64 53.776C76.64 55.376 76.944 56.576 77.552 57.376C78.16 58.144 78.976 58.528 80 58.528C81.504 58.528 82.736 58.192 83.696 57.52C84.688 56.848 85.696 55.936 86.72 54.784C87.36 54.08 87.872 53.568 88.256 53.248C88.672 52.896 89.104 52.72 89.552 52.72C90.128 52.72 90.736 53.008 91.376 53.584C92.016 54.16 92.32 54.736 92.288 55.312C92.32 56.016 91.744 57.104 90.56 58.576C89.408 60.048 87.792 61.376 85.712 62.56C83.664 63.712 81.328 64.288 78.704 64.288ZM113.81 38.608C118.162 38.608 121.362 39.488 123.41 41.248C125.49 43.008 126.53 45.312 126.53 48.16C126.53 49.12 126.402 50.192 126.146 51.376C125.538 54 124.402 56.304 122.738 58.288C121.074 60.24 119.026 61.76 116.594 62.848C114.194 63.904 111.586 64.432 108.77 64.432C104.322 64.432 101.026 63.552 98.8824 61.792C96.7704 60 95.7144 57.632 95.7144 54.688C95.7144 53.696 95.8424 52.592 96.0984 51.376C96.7064 48.88 97.8584 46.672 99.5544 44.752C101.282 42.8 103.378 41.296 105.842 40.24C108.338 39.152 110.994 38.608 113.81 38.608ZM113.666 42.88C112.994 42.88 112.274 43.488 111.506 44.704C110.77 45.888 109.89 48.144 108.866 51.472C107.842 54.8 107.33 57.136 107.33 58.48C107.33 59.184 107.442 59.664 107.666 59.92C107.89 60.144 108.194 60.256 108.578 60.256C109.25 60.32 109.938 59.744 110.642 58.528C111.378 57.312 112.29 54.944 113.378 51.424C114.37 48.32 114.866 46.064 114.866 44.656C114.866 43.984 114.754 43.52 114.53 43.264C114.338 43.008 114.05 42.88 113.666 42.88ZM156.446 57.376C156.382 57.504 156.35 57.696 156.35 57.952C156.35 58.176 156.398 58.352 156.494 58.48C156.622 58.608 156.782 58.672 156.974 58.672C157.358 58.672 157.678 58.512 157.934 58.192C158.222 57.84 158.414 57.664 158.51 57.664C158.67 57.664 158.798 57.776 158.894 58C158.99 58.192 159.038 58.432 159.038 58.72C159.07 59.648 158.766 60.56 158.126 61.456C157.486 62.32 156.542 63.04 155.294 63.616C154.078 64.16 152.606 64.432 150.878 64.432C148.766 64.432 147.086 63.952 145.838 62.992C144.59 62 143.95 60.688 143.918 59.056C143.918 57.872 144.206 56.544 144.782 55.072L147.422 48.16C147.582 47.744 147.662 47.408 147.662 47.152C147.662 46.736 147.518 46.416 147.23 46.192C146.974 45.936 146.654 45.808 146.27 45.808C145.566 45.808 144.894 46.144 144.254 46.816C143.614 47.456 143.15 48.256 142.862 49.216L139.886 59.008C139.758 59.36 139.694 59.696 139.694 60.016C139.694 60.4 139.774 60.72 139.934 60.976C140.094 61.2 140.318 61.44 140.606 61.696C140.83 61.888 140.99 62.064 141.086 62.224C141.182 62.384 141.198 62.576 141.134 62.8C141.006 63.216 140.702 63.52 140.222 63.712C139.742 63.904 138.99 64 137.966 64H127.022C126.19 64 125.598 63.872 125.246 63.616C124.862 63.328 124.718 62.96 124.814 62.512C124.942 62.128 125.278 61.792 125.822 61.504C126.302 61.248 126.702 60.944 127.022 60.592C127.342 60.24 127.614 59.68 127.838 58.912L132.11 45.04C132.174 44.88 132.206 44.656 132.206 44.368C132.206 44.016 132.126 43.744 131.966 43.552C131.838 43.36 131.614 43.12 131.294 42.832C130.974 42.576 130.75 42.352 130.622 42.16C130.494 41.968 130.478 41.712 130.574 41.392C130.766 40.656 131.774 40.016 133.598 39.472C135.422 38.896 137.326 38.608 139.31 38.608C140.91 38.608 142.174 39.056 143.102 39.952C144.03 40.816 144.446 42.032 144.35 43.6C145.662 41.712 147.054 40.416 148.526 39.712C149.998 38.976 151.598 38.608 153.326 38.608C155.278 38.608 156.846 39.2 158.03 40.384C159.246 41.568 159.854 43.104 159.854 44.992C159.854 45.984 159.694 46.96 159.374 47.92L156.446 57.376ZM184.518 38.608C186.214 38.608 187.622 39.216 188.742 40.432C189.862 41.648 190.422 43.312 190.422 45.424C190.422 48.272 189.43 51.184 187.446 54.16C185.462 57.136 182.95 59.6 179.91 61.552C176.87 63.472 173.91 64.432 171.03 64.432C168.278 64.432 166.038 63.872 164.31 62.752C162.614 61.632 161.766 60.032 161.766 57.952C161.766 57.184 161.91 56.32 162.198 55.36L165.222 45.04C165.286 44.784 165.318 44.592 165.318 44.464C165.318 44.144 165.238 43.872 165.078 43.648C164.918 43.424 164.694 43.184 164.406 42.928C163.926 42.512 163.686 42.144 163.686 41.824C163.654 41.376 163.926 40.896 164.502 40.384C165.078 39.872 165.878 39.456 166.902 39.136C167.958 38.784 169.142 38.608 170.454 38.608C172.598 38.608 174.262 39.136 175.446 40.192C176.662 41.216 177.27 42.56 177.27 44.224C177.27 44.96 177.142 45.76 176.886 46.624L173.766 56.896C173.67 57.184 173.622 57.424 173.622 57.616C173.622 58.032 173.766 58.352 174.054 58.576C174.342 58.8 174.742 58.912 175.254 58.912C175.958 58.912 176.774 58.608 177.702 58C178.662 57.36 179.606 56.464 180.534 55.312C181.462 54.128 182.214 52.736 182.79 51.136C181.51 50.016 180.598 48.912 180.054 47.824C179.542 46.736 179.286 45.616 179.286 44.464C179.286 42.832 179.734 41.456 180.63 40.336C181.526 39.184 182.822 38.608 184.518 38.608ZM206.1 38.368C210.164 38.368 213.108 39.024 214.932 40.336C216.756 41.616 217.668 43.264 217.668 45.28C217.668 45.888 217.604 46.448 217.476 46.96C216.996 49.072 215.652 50.592 213.444 51.52C211.268 52.416 208.692 52.864 205.716 52.864C204.212 52.864 202.804 52.768 201.492 52.576C201.46 54.24 201.908 55.408 202.836 56.08C203.764 56.752 205.06 57.088 206.724 57.088C207.492 57.088 208.228 57.008 208.932 56.848C209.636 56.656 210.532 56.384 211.62 56.032C212.516 55.712 213.124 55.552 213.444 55.552C213.796 55.552 213.972 55.76 213.972 56.176C214.004 57.296 213.588 58.48 212.724 59.728C211.86 60.944 210.58 61.984 208.884 62.848C207.188 63.712 205.14 64.144 202.74 64.144C199.188 64.144 196.276 63.248 194.004 61.456C191.732 59.664 190.596 57.056 190.596 53.632C190.596 52.672 190.724 51.552 190.98 50.272C191.78 46.336 193.524 43.376 196.212 41.392C198.932 39.376 202.228 38.368 206.1 38.368ZM201.828 49.696C201.956 49.728 202.132 49.744 202.356 49.744C203.7 49.744 204.724 49.12 205.428 47.872C206.132 46.624 206.468 45.232 206.436 43.696C206.404 42.8 206.148 42.352 205.668 42.352C205.316 42.352 204.9 42.64 204.42 43.216C203.94 43.76 203.46 44.592 202.98 45.712C202.532 46.832 202.148 48.16 201.828 49.696ZM240.256 38.608C242.048 38.608 243.472 39.152 244.528 40.24C245.616 41.328 246.16 42.672 246.16 44.272C246.16 44.88 246.096 45.44 245.968 45.952C245.648 47.264 245.04 48.272 244.144 48.976C243.248 49.68 242.176 50.032 240.927 50.032C239.712 50.032 238.784 49.744 238.144 49.168C237.536 48.592 236.992 47.824 236.512 46.864C236.256 46.32 236.016 45.92 235.792 45.664C235.568 45.408 235.312 45.28 235.024 45.28C234.704 45.28 234.416 45.408 234.16 45.664C233.936 45.92 233.728 46.368 233.536 47.008L229.84 59.008C229.776 59.168 229.744 59.408 229.744 59.728C229.744 60.144 229.856 60.496 230.08 60.784C230.336 61.04 230.672 61.296 231.088 61.552C231.472 61.808 231.728 62.016 231.856 62.176C231.984 62.336 232.032 62.544 232 62.8C231.936 63.216 231.696 63.52 231.28 63.712C230.896 63.904 230.224 64 229.264 64H216.976C216.143 64 215.551 63.872 215.199 63.616C214.815 63.328 214.671 62.96 214.767 62.512C214.895 62.128 215.231 61.792 215.775 61.504C216.255 61.248 216.655 60.944 216.976 60.592C217.296 60.24 217.568 59.68 217.792 58.912L222.064 45.04C222.128 44.88 222.16 44.656 222.16 44.368C222.16 44.016 222.08 43.744 221.92 43.552C221.792 43.36 221.568 43.12 221.248 42.832C220.928 42.576 220.704 42.352 220.576 42.16C220.448 41.968 220.432 41.712 220.528 41.392C220.72 40.656 221.728 40.016 223.552 39.472C225.376 38.896 227.28 38.608 229.264 38.608C230.576 38.608 231.664 38.912 232.528 39.52C233.392 40.096 233.952 40.928 234.208 42.016C235.744 39.744 237.76 38.608 240.256 38.608ZM265.94 39.232C266.548 39.232 267.012 39.36 267.332 39.616C267.684 39.872 267.86 40.224 267.86 40.672C267.86 40.8 267.828 41.024 267.764 41.344C267.348 42.752 266.388 43.456 264.884 43.456H262.1L258.5 55.312C258.34 55.792 258.26 56.288 258.26 56.8C258.26 57.376 258.42 57.776 258.74 58C259.06 58.224 259.508 58.336 260.084 58.336C260.596 58.336 261.236 58.272 262.004 58.144C262.388 58.048 262.724 58 263.012 58C263.236 58 263.396 58.08 263.492 58.24C263.62 58.368 263.684 58.544 263.684 58.768C263.716 59.408 263.236 60.192 262.244 61.12C261.284 62.016 259.972 62.8 258.308 63.472C256.644 64.112 254.804 64.432 252.788 64.432C250.612 64.432 248.868 63.936 247.556 62.944C246.244 61.952 245.588 60.592 245.588 58.864C245.588 58.064 245.716 57.296 245.972 56.56L249.044 47.056C249.204 46.512 249.284 46.08 249.284 45.76C249.284 45.12 249.124 44.576 248.804 44.128C248.516 43.68 248.1 43.216 247.556 42.736C247.076 42.288 246.74 41.92 246.548 41.632C246.356 41.312 246.308 40.944 246.404 40.528C246.532 40.112 246.804 39.792 247.22 39.568C247.636 39.344 248.292 39.232 249.188 39.232H251.876L254.9 36.208C255.956 35.152 256.916 34.416 257.78 34C258.676 33.584 259.828 33.376 261.236 33.376C263.252 33.376 264.26 34.144 264.26 35.68C264.26 36.16 264.196 36.608 264.068 37.024L263.396 39.232H265.94ZM284.175 39.232C284.783 39.232 285.247 39.36 285.567 39.616C285.919 39.872 286.095 40.224 286.095 40.672C286.095 40.8 286.063 41.024 285.999 41.344C285.583 42.752 284.623 43.456 283.119 43.456H280.335L276.735 55.312C276.575 55.792 276.495 56.288 276.495 56.8C276.495 57.376 276.655 57.776 276.975 58C277.295 58.224 277.743 58.336 278.319 58.336C278.831 58.336 279.471 58.272 280.239 58.144C280.623 58.048 280.959 58 281.247 58C281.471 58 281.631 58.08 281.727 58.24C281.855 58.368 281.919 58.544 281.919 58.768C281.951 59.408 281.471 60.192 280.479 61.12C279.519 62.016 278.207 62.8 276.543 63.472C274.879 64.112 273.039 64.432 271.023 64.432C268.847 64.432 267.103 63.936 265.791 62.944C264.479 61.952 263.823 60.592 263.823 58.864C263.823 58.064 263.951 57.296 264.207 56.56L267.279 47.056C267.439 46.512 267.519 46.08 267.519 45.76C267.519 45.12 267.359 44.576 267.039 44.128C266.751 43.68 266.335 43.216 265.791 42.736C265.311 42.288 264.975 41.92 264.783 41.632C264.591 41.312 264.543 40.944 264.639 40.528C264.767 40.112 265.039 39.792 265.455 39.568C265.871 39.344 266.527 39.232 267.423 39.232H270.111L273.135 36.208C274.191 35.152 275.151 34.416 276.015 34C276.911 33.584 278.063 33.376 279.471 33.376C281.487 33.376 282.495 34.144 282.495 35.68C282.495 36.16 282.431 36.608 282.303 37.024L281.631 39.232H284.175ZM301.92 38.608C306.272 38.608 309.472 39.488 311.52 41.248C313.6 43.008 314.64 45.312 314.64 48.16C314.64 49.12 314.512 50.192 314.256 51.376C313.648 54 312.512 56.304 310.848 58.288C309.184 60.24 307.136 61.76 304.704 62.848C302.304 63.904 299.696 64.432 296.88 64.432C292.432 64.432 289.136 63.552 286.992 61.792C284.88 60 283.824 57.632 283.824 54.688C283.824 53.696 283.952 52.592 284.208 51.376C284.816 48.88 285.968 46.672 287.664 44.752C289.392 42.8 291.488 41.296 293.952 40.24C296.448 39.152 299.104 38.608 301.92 38.608ZM301.776 42.88C301.104 42.88 300.384 43.488 299.616 44.704C298.88 45.888 298 48.144 296.976 51.472C295.952 54.8 295.44 57.136 295.44 58.48C295.44 59.184 295.552 59.664 295.776 59.92C296 60.144 296.304 60.256 296.688 60.256C297.36 60.32 298.048 59.744 298.752 58.528C299.488 57.312 300.4 54.944 301.488 51.424C302.48 48.32 302.976 46.064 302.976 44.656C302.976 43.984 302.864 43.52 302.64 43.264C302.448 43.008 302.16 42.88 301.776 42.88ZM332.796 31.744C334.588 31.744 336.236 31.968 337.74 32.416C339.276 32.832 340.828 33.504 342.396 34.432L343.5 33.52C344.268 32.912 344.892 32.496 345.372 32.272C345.884 32.048 346.46 31.936 347.1 31.936C347.868 31.936 348.476 32.112 348.924 32.464C349.372 32.784 349.596 33.264 349.596 33.904C349.596 34.16 349.548 34.432 349.452 34.72L347.436 41.344C347.212 42.112 346.924 42.656 346.572 42.976C346.252 43.296 345.756 43.456 345.084 43.456C344.38 43.456 343.756 43.248 343.212 42.832C342.7 42.384 341.884 41.488 340.764 40.144C339.644 38.864 338.62 37.968 337.692 37.456C336.796 36.912 335.868 36.64 334.908 36.64C334.204 36.64 333.612 36.88 333.132 37.36C332.652 37.808 332.412 38.368 332.412 39.04C332.412 39.808 332.796 40.528 333.564 41.2C334.332 41.84 335.532 42.656 337.164 43.648C338.828 44.64 340.204 45.536 341.292 46.336C342.38 47.136 343.308 48.128 344.076 49.312C344.844 50.496 345.228 51.856 345.228 53.392C345.228 54.384 345.068 55.376 344.748 56.368C343.98 58.928 342.492 60.88 340.284 62.224C338.076 63.536 335.5 64.192 332.556 64.192C330.348 64.192 328.492 63.936 326.988 63.424C325.484 62.912 323.948 62.048 322.38 60.832L320.652 62.272C319.852 62.944 319.196 63.408 318.684 63.664C318.172 63.888 317.596 64 316.956 64C316.22 64 315.628 63.824 315.18 63.472C314.764 63.12 314.556 62.64 314.556 62.032C314.556 61.712 314.62 61.376 314.748 61.024L317.1 53.872C317.356 53.04 317.708 52.448 318.156 52.096C318.604 51.744 319.18 51.568 319.884 51.568C320.62 51.568 321.276 51.824 321.852 52.336C322.46 52.848 323.244 53.776 324.204 55.12C325.228 56.592 326.172 57.616 327.036 58.192C327.932 58.768 328.988 59.056 330.204 59.056C331.068 59.056 331.724 58.928 332.172 58.672C332.652 58.384 332.988 57.936 333.18 57.328C333.244 57.168 333.276 56.928 333.276 56.608C333.276 55.84 332.908 55.136 332.172 54.496C331.436 53.856 330.3 53.088 328.764 52.192C327.132 51.2 325.804 50.32 324.78 49.552C323.756 48.752 322.86 47.76 322.092 46.576C321.356 45.392 320.988 44 320.988 42.4C320.988 41.28 321.164 40.176 321.516 39.088C322.188 36.88 323.564 35.104 325.644 33.76C327.724 32.416 330.108 31.744 332.796 31.744ZM393.586 57.376C393.522 57.504 393.49 57.696 393.49 57.952C393.49 58.176 393.538 58.352 393.634 58.48C393.762 58.608 393.922 58.672 394.114 58.672C394.498 58.672 394.818 58.512 395.074 58.192C395.362 57.84 395.554 57.664 395.65 57.664C395.81 57.664 395.938 57.776 396.034 58C396.13 58.192 396.177 58.432 396.177 58.72C396.21 59.648 395.906 60.56 395.266 61.456C394.626 62.32 393.682 63.04 392.434 63.616C391.218 64.16 389.746 64.432 388.018 64.432C385.906 64.432 384.226 63.952 382.978 62.992C381.73 62 381.09 60.688 381.058 59.056C381.058 57.872 381.346 56.544 381.922 55.072L384.562 48.16C384.722 47.744 384.802 47.408 384.802 47.152C384.802 46.736 384.658 46.416 384.37 46.192C384.114 45.936 383.794 45.808 383.41 45.808C382.866 45.808 382.306 46.048 381.73 46.528C381.154 47.008 380.642 47.76 380.194 48.784L377.554 57.376C377.49 57.504 377.458 57.696 377.458 57.952C377.458 58.176 377.506 58.352 377.602 58.48C377.73 58.608 377.89 58.672 378.082 58.672C378.466 58.672 378.786 58.512 379.042 58.192C379.33 57.84 379.522 57.664 379.618 57.664C379.778 57.664 379.906 57.776 380.002 58C380.098 58.192 380.146 58.432 380.146 58.72C380.178 59.648 379.874 60.56 379.234 61.456C378.594 62.32 377.65 63.04 376.402 63.616C375.186 64.16 373.714 64.432 371.986 64.432C369.874 64.432 368.194 63.952 366.946 62.992C365.698 62 365.058 60.688 365.026 59.056C365.026 57.872 365.314 56.544 365.89 55.072L368.53 48.16C368.69 47.744 368.77 47.408 368.77 47.152C368.77 46.736 368.626 46.416 368.338 46.192C368.082 45.936 367.762 45.808 367.378 45.808C366.834 45.808 366.274 46.048 365.698 46.528C365.122 46.976 364.642 47.712 364.258 48.736L361.09 59.008C360.962 59.36 360.898 59.696 360.898 60.016C360.898 60.4 360.978 60.72 361.138 60.976C361.298 61.2 361.522 61.44 361.81 61.696C362.034 61.888 362.194 62.064 362.29 62.224C362.386 62.384 362.402 62.576 362.338 62.8C362.21 63.216 361.906 63.52 361.426 63.712C360.946 63.904 360.194 64 359.17 64H348.226C347.393 64 346.801 63.872 346.449 63.616C346.065 63.328 345.921 62.96 346.017 62.512C346.145 62.128 346.481 61.792 347.025 61.504C347.505 61.248 347.905 60.944 348.226 60.592C348.546 60.24 348.818 59.68 349.042 58.912L353.314 45.04C353.378 44.88 353.41 44.656 353.41 44.368C353.41 44.016 353.33 43.744 353.17 43.552C353.042 43.36 352.818 43.12 352.498 42.832C352.178 42.576 351.954 42.352 351.826 42.16C351.698 41.968 351.682 41.712 351.778 41.392C351.97 40.656 352.978 40.016 354.802 39.472C356.626 38.896 358.53 38.608 360.514 38.608C362.082 38.608 363.314 39.04 364.21 39.904C365.138 40.768 365.586 41.952 365.554 43.456C366.866 41.632 368.242 40.368 369.682 39.664C371.154 38.96 372.738 38.608 374.434 38.608C376.29 38.608 377.794 39.152 378.946 40.24C380.13 41.296 380.786 42.688 380.914 44.416C382.29 42.24 383.762 40.736 385.33 39.904C386.898 39.04 388.61 38.608 390.466 38.608C392.418 38.608 393.986 39.2 395.17 40.384C396.386 41.568 396.994 43.104 396.994 44.992C396.994 45.984 396.834 46.96 396.514 47.92L393.586 57.376ZM415.37 38.608C419.05 38.608 421.994 39.296 424.202 40.672C426.41 42.016 427.514 44.08 427.514 46.864C427.514 47.92 427.322 49.12 426.938 50.464L424.97 57.088C424.938 57.216 424.922 57.376 424.922 57.568C424.922 58.08 425.13 58.336 425.546 58.336C425.93 58.336 426.25 58.176 426.506 57.856C426.794 57.504 426.986 57.328 427.082 57.328C427.242 57.328 427.37 57.44 427.466 57.664C427.594 57.888 427.658 58.144 427.658 58.432C427.69 59.296 427.354 60.176 426.65 61.072C425.978 61.968 425.066 62.704 423.914 63.28C422.762 63.856 421.498 64.144 420.122 64.144C418.458 64.144 417.034 63.84 415.85 63.232C414.666 62.624 413.85 61.728 413.402 60.544C412.442 61.696 411.306 62.592 409.994 63.232C408.682 63.84 407.274 64.144 405.77 64.144C404.074 64.144 402.65 63.824 401.498 63.184C400.346 62.512 399.482 61.664 398.906 60.64C398.362 59.584 398.09 58.48 398.09 57.328C398.09 56.816 398.138 56.32 398.234 55.84C398.746 53.632 399.85 51.968 401.546 50.848C403.274 49.728 405.322 49.168 407.69 49.168C410.346 49.168 412.954 49.584 415.514 50.416L416.714 47.248C417.13 45.904 417.338 44.864 417.338 44.128C417.306 43.36 417.05 42.784 416.57 42.4C416.09 42.016 415.354 41.824 414.362 41.824C414.554 42.336 414.65 42.864 414.65 43.408C414.65 44.592 414.202 45.616 413.306 46.48C412.41 47.344 411.13 47.776 409.466 47.776C407.898 47.776 406.666 47.44 405.77 46.768C404.906 46.064 404.474 45.2 404.474 44.176C404.474 42.576 405.37 41.248 407.162 40.192C408.954 39.136 411.69 38.608 415.37 38.608ZM412.682 53.152C411.786 53.152 411.05 53.504 410.474 54.208C409.93 54.88 409.658 55.616 409.658 56.416C409.658 56.928 409.77 57.344 409.994 57.664C410.25 57.984 410.602 58.144 411.05 58.144C411.466 58.144 411.914 57.984 412.394 57.664C412.906 57.312 413.274 56.8 413.498 56.128L414.506 53.296C413.962 53.2 413.354 53.152 412.682 53.152ZM453.209 38.608C455.001 38.608 456.425 39.152 457.481 40.24C458.569 41.328 459.113 42.672 459.113 44.272C459.113 44.88 459.049 45.44 458.921 45.952C458.601 47.264 457.993 48.272 457.097 48.976C456.201 49.68 455.129 50.032 453.881 50.032C452.665 50.032 451.737 49.744 451.097 49.168C450.489 48.592 449.945 47.824 449.465 46.864C449.209 46.32 448.969 45.92 448.745 45.664C448.521 45.408 448.265 45.28 447.977 45.28C447.657 45.28 447.369 45.408 447.113 45.664C446.889 45.92 446.681 46.368 446.489 47.008L442.793 59.008C442.729 59.168 442.697 59.408 442.697 59.728C442.697 60.144 442.809 60.496 443.033 60.784C443.289 61.04 443.625 61.296 444.041 61.552C444.425 61.808 444.681 62.016 444.809 62.176C444.937 62.336 444.985 62.544 444.953 62.8C444.889 63.216 444.649 63.52 444.233 63.712C443.849 63.904 443.177 64 442.217 64H429.929C429.097 64 428.505 63.872 428.153 63.616C427.769 63.328 427.625 62.96 427.721 62.512C427.849 62.128 428.185 61.792 428.729 61.504C429.209 61.248 429.609 60.944 429.929 60.592C430.249 60.24 430.521 59.68 430.745 58.912L435.017 45.04C435.081 44.88 435.113 44.656 435.113 44.368C435.113 44.016 435.033 43.744 434.873 43.552C434.745 43.36 434.521 43.12 434.201 42.832C433.881 42.576 433.657 42.352 433.529 42.16C433.401 41.968 433.385 41.712 433.481 41.392C433.673 40.656 434.681 40.016 436.505 39.472C438.329 38.896 440.233 38.608 442.217 38.608C443.529 38.608 444.617 38.912 445.481 39.52C446.345 40.096 446.905 40.928 447.161 42.016C448.697 39.744 450.713 38.608 453.209 38.608ZM478.894 39.232C479.502 39.232 479.966 39.36 480.286 39.616C480.638 39.872 480.814 40.224 480.814 40.672C480.814 40.8 480.782 41.024 480.718 41.344C480.302 42.752 479.342 43.456 477.838 43.456H475.054L471.454 55.312C471.294 55.792 471.214 56.288 471.214 56.8C471.214 57.376 471.374 57.776 471.694 58C472.014 58.224 472.462 58.336 473.038 58.336C473.55 58.336 474.19 58.272 474.958 58.144C475.342 58.048 475.678 58 475.966 58C476.19 58 476.35 58.08 476.446 58.24C476.574 58.368 476.638 58.544 476.638 58.768C476.67 59.408 476.19 60.192 475.198 61.12C474.238 62.016 472.926 62.8 471.262 63.472C469.598 64.112 467.758 64.432 465.742 64.432C463.566 64.432 461.822 63.936 460.51 62.944C459.198 61.952 458.542 60.592 458.542 58.864C458.542 58.064 458.67 57.296 458.926 56.56L461.998 47.056C462.158 46.512 462.238 46.08 462.238 45.76C462.238 45.12 462.078 44.576 461.758 44.128C461.47 43.68 461.054 43.216 460.51 42.736C460.03 42.288 459.694 41.92 459.502 41.632C459.31 41.312 459.262 40.944 459.358 40.528C459.486 40.112 459.758 39.792 460.174 39.568C460.59 39.344 461.246 39.232 462.142 39.232H464.83L467.854 36.208C468.91 35.152 469.87 34.416 470.734 34C471.63 33.584 472.782 33.376 474.19 33.376C476.206 33.376 477.214 34.144 477.214 35.68C477.214 36.16 477.15 36.608 477.022 37.024L476.35 39.232H478.894Z" fill="white"/>
<rect y="29.3333" width="18.0626" height="45.3333" fill="#FF0A0A"/>
<rect x="25.0869" y="12" width="18.0626" height="36" fill="#6EFA00"/>
</svg>
